<!DOCTYPE svg PUBLIC "-//W3C//DTD SVG 20010904//EN" "http://www.w3.org/TR/2001/REC-SVG-20010904/DTD/svg10.dtd">
<svg version="1.0" xmlns="http://www.w3.org/2000/svg" width="306px" height="306px" viewBox="0 0 3060 3060" preserveAspectRatio="xMidYMid meet">
<g id="layer101" fill="#000000" stroke="none">
 <path d="M1355 3015 c-112 -13 -210 -33 -300 -61 -68 -22 -238 -104 -321 -155 -139 -85 -302 -237 -417 -390 -61 -81 -163 -269 -200 -371 -40 -108 -87 -385 -87 -513 0 -67 20 -234 42 -345 28 -140 107 -327 206 -485 83 -133 275 -323 422 -419 219 -144 414 -212 687 -242 130 -14 156 -14 286 0 274 30 478 103 700 251 167 111 347 305 448 482 123 215 176 382 199 627 27 284 -30 572 -163 826 -122 232 -329 457 -542 585 -55 34 -223 118 -270 135 -76 29 -232 62 -355 75 -155 17 -184 17 -335 0z"/>
 </g>
<g id="layer102" fill="#ffffff" stroke="none">
 <path d="M1310 2930 c-292 -46 -557 -178 -774 -388 -200 -194 -358 -494 -407 -772 -18 -98 -18 -392 0 -490 76 -425 353 -807 733 -1009 121 -65 325 -134 443 -151 182 -26 473 -12 590 30 28 9 75 25 105 35 101 32 288 133 388 209 171 131 302 286 399 474 29 57 53 108 53 113 0 5 8 28 19 52 10 23 24 62 31 87 7 25 16 56 21 70 15 48 39 249 39 335 0 151 -39 372 -85 480 -7 17 -16 41 -20 54 -4 12 -30 69 -59 125 -95 186 -245 361 -421 491 -76 56 -251 153 -305 170 -14 4 -38 13 -55 20 -171 72 -468 100 -695 65z m480 -475 c10 -12 39 -15 141 -15 118 0 129 -2 139 -20 7 -13 21 -20 40 -20 19 0 33 -7 40 -20 6 -11 21 -20 34 -20 13 0 29 -7 36 -15 7 -8 19 -15 26 -15 8 0 14 -6 14 -14 0 -7 9 -16 20 -19 44 -11 3 -107 -46 -107 -9 0 -27 -9 -41 -20 -17 -13 -41 -20 -70 -20 -30 0 -45 -5 -49 -15 -8 -20 -43 -19 -66 1 -14 13 -21 14 -32 5 -11 -9 -13 -48 -9 -214 3 -111 10 -206 15 -212 20 -21 28 25 28 162 0 79 4 144 10 148 18 11 50 -28 50 -62 0 -23 5 -33 20 -38 16 -5 20 -15 20 -52 0 -37 4 -46 20 -50 11 -3 23 -17 27 -32 3 -14 12 -30 19 -36 7 -5 17 -26 21 -45 7 -24 16 -36 30 -38 12 -2 27 -10 33 -18 9 -9 33 -14 76 -14 53 0 64 3 69 19 3 11 12 22 20 25 12 4 15 26 15 100 0 86 -2 97 -24 120 -13 15 -28 26 -33 26 -6 0 -23 18 -38 40 -25 36 -31 39 -79 42 -37 2 -51 7 -51 18 0 11 15 16 62 18 53 2 65 0 80 -18 10 -11 23 -20 31 -20 7 0 15 -8 19 -17 3 -10 28 -39 55 -64 l48 -47 0 -150 0 -150 -31 -26 c-17 -14 -39 -26 -50 -26 -10 0 -19 -7 -19 -15 0 -12 -15 -15 -74 -15 -65 0 -74 2 -79 20 -7 26 -34 25 -63 -2 -53 -53 -62 -58 -96 -58 -20 0 -41 -7 -48 -15 -8 -10 -30 -15 -61 -15 -38 0 -51 -4 -59 -20 -10 -19 -21 -20 -389 -20 -365 0 -379 1 -396 20 -13 15 -31 20 -65 20 -33 0 -50 5 -54 15 -3 10 -19 15 -45 15 -23 0 -43 6 -48 14 -4 7 -18 18 -30 24 -21 11 -21 16 -16 129 4 83 9 121 19 129 8 6 14 21 14 33 0 14 9 25 25 31 22 8 25 16 25 54 0 35 5 48 20 56 13 7 20 21 20 38 0 18 11 39 30 57 24 23 30 37 28 60 -2 25 -8 31 -31 33 -16 2 -31 10 -34 18 -3 9 -21 14 -53 14 -34 0 -52 5 -65 20 -10 11 -24 20 -32 20 -8 0 -27 10 -43 22 -34 25 -42 74 -14 85 9 3 30 19 47 34 17 16 42 29 54 29 12 0 27 9 33 20 7 13 21 20 40 20 20 0 31 6 35 20 6 19 15 20 145 20 113 0 139 3 144 15 5 13 41 15 244 15 201 0 242 -2 252 -15z m-192 -1204 c15 -15 44 -47 64 -70 21 -22 41 -41 47 -41 12 0 21 -36 21 -85 0 -33 -6 -46 -31 -68 -32 -28 -73 -36 -85 -16 -4 6 10 26 30 43 20 18 36 41 36 50 0 10 -31 48 -70 85 -58 55 -70 72 -70 99 0 41 21 42 58 3z m-23 -186 c0 -37 -2 -40 -30 -45 -60 -10 -75 -29 -75 -93 0 -42 4 -59 15 -63 8 -4 15 -11 15 -16 0 -6 18 -28 40 -49 22 -22 40 -47 40 -56 0 -10 16 -34 36 -53 l35 -35 -3 -85 -3 -85 -33 -3 c-37 -4 -57 24 -29 40 23 12 24 96 2 104 -8 4 -15 12 -15 19 0 7 -7 15 -15 19 -8 3 -15 12 -15 21 0 8 -7 15 -15 15 -8 0 -19 9 -25 20 -6 11 -17 20 -25 20 -8 0 -15 7 -15 15 0 8 -7 15 -15 15 -8 0 -15 7 -15 15 0 9 -7 18 -15 21 -11 5 -15 23 -15 79 0 52 4 76 15 85 8 7 15 20 15 29 1 20 34 61 49 61 6 0 16 12 21 26 8 21 15 25 42 22 31 -3 33 -5 33 -43z"/>
 <path d="M1230 1620 c0 -5 28 -10 63 -12 47 -2 62 -7 62 -18 0 -12 -16 -16 -72 -18 -41 -2 -73 1 -73 7 0 5 -28 12 -62 16 -55 7 -63 5 -77 -13 -9 -12 -30 -22 -51 -24 -30 -3 -35 -7 -35 -28 0 -22 4 -25 38 -25 26 0 42 -6 48 -17 13 -24 120 -26 139 -3 7 8 23 15 35 15 12 0 29 9 36 20 13 18 28 19 209 21 107 1 199 4 204 7 13 7 -16 22 -45 22 -15 0 -32 7 -39 15 -9 11 -33 15 -85 15 -52 0 -76 4 -85 15 -10 11 -36 15 -111 15 -56 0 -99 -4 -99 -10z m-62 -97 c5 -16 -22 -27 -44 -19 -13 5 -14 9 -4 22 15 17 41 15 48 -3z"/>
 <path d="M1620 1620 c0 -5 13 -10 29 -10 17 0 33 5 36 10 4 6 -8 10 -29 10 -20 0 -36 -4 -36 -10z"/>
 <path d="M1975 1610 c-3 -5 -24 -10 -45 -10 -21 0 -41 -3 -43 -8 -7 -11 29 -52 46 -52 18 0 39 -24 30 -33 -13 -14 -53 -7 -53 9 0 28 -35 11 -38 -19 -3 -27 -2 -27 53 -27 41 0 63 6 85 21 20 15 36 20 54 15 19 -5 28 -1 36 14 16 29 4 40 -41 40 -36 0 -42 4 -52 30 -12 31 -21 37 -32 20z"/>
 <path d="M1230 1450 c0 -6 110 -10 310 -10 200 0 310 4 310 10 0 6 -110 10 -310 10 -200 0 -310 -4 -310 -10z"/>
 </g>

</svg>